<svg width="104" height="24" viewBox="0 0 104 24" fill="none" xmlns="http://www.w3.org/2000/svg">
<path d="M31.8155 8.49837C30.9187 8.49837 30.1073 8.79731 29.5094 9.43787C28.8688 10.0784 28.5699 10.8471 28.5699 11.7866C28.5699 12.7261 28.8688 13.4948 29.5094 14.1354C30.15 14.776 30.9187 15.0749 31.8155 15.0749C32.7123 15.0749 33.5236 14.776 34.1642 14.1354C34.8048 13.4948 35.1037 12.7261 35.1037 11.7866C35.1037 10.8471 34.8048 10.0784 34.1642 9.43787C33.5236 8.79731 32.755 8.49837 31.8155 8.49837ZM31.8155 16.9966C30.3635 16.9966 29.125 16.4841 28.1001 15.5019C27.0752 14.477 26.6055 13.2813 26.6055 11.7866C26.6055 10.292 27.1179 9.09623 28.1001 8.07132C29.0823 7.08912 30.3635 6.57666 31.8155 6.57666C33.2674 6.57666 34.5059 7.08912 35.5308 8.07132C36.5557 9.09623 37.0681 10.3347 37.0681 11.7866C37.0681 13.2386 36.5557 14.477 35.5308 15.5019C34.5486 16.4841 33.2674 16.9966 31.8155 16.9966Z" fill="#110633"/>
<path d="M44.029 8.45543C43.0895 8.45543 42.2782 8.75436 41.6803 9.43763C41.0397 10.0782 40.7408 10.8469 40.7408 11.7864C40.7408 12.7259 41.0397 13.4946 41.6803 14.1779C42.3209 14.8184 43.0895 15.1173 44.029 15.1173C44.9686 15.1173 45.7372 14.8184 46.3778 14.1779C47.0184 13.5373 47.3173 12.7259 47.3173 11.7864C47.3173 10.8469 47.0184 10.0782 46.3778 9.43763C45.7372 8.79707 44.9686 8.45543 44.029 8.45543ZM38.9045 20.6263C38.8191 20.6263 38.7764 20.5836 38.7764 20.4981V6.96077C38.7764 6.87536 38.8191 6.83266 38.9045 6.83266H40.57C40.6554 6.83266 40.6981 6.87536 40.6981 6.96077V8.24191C41.5522 7.13159 42.7052 6.61914 44.1999 6.61914C45.6945 6.61914 46.7622 7.13159 47.7444 8.1565C48.7266 9.18141 49.1963 10.4199 49.1963 11.8291C49.1963 13.2384 48.6839 14.5195 47.7444 15.5444C46.8049 16.5266 45.6091 17.0391 44.1999 17.0391C42.7906 17.0391 41.5095 16.4839 40.6981 15.4163V20.5408C40.6981 20.6262 40.6554 20.6689 40.57 20.6689H38.9045V20.6263Z" fill="#110633"/>
<path d="M58.5907 10.9753C58.2918 9.39519 57.1814 8.41298 55.6441 8.41298C54.1067 8.41298 52.7829 9.39519 52.4412 10.9753H58.5907ZM55.7722 16.9966C54.2348 16.9966 52.911 16.4841 51.9288 15.5446C50.9465 14.5624 50.4768 13.2813 50.4768 11.7866C50.4768 10.292 50.9465 9.05353 51.9288 8.07132C52.911 7.08912 54.1494 6.57666 55.6868 6.57666C57.2241 6.57666 58.3345 7.08913 59.2313 8.11404C60.1281 9.09625 60.5978 10.3347 60.5978 11.7866C60.5978 13.2386 60.5978 12.2991 60.5551 12.5553C60.5551 12.598 60.5124 12.6834 60.427 12.6834H52.4839C52.8255 14.2208 54.064 15.1603 55.8149 15.1603C57.5658 15.1603 57.9501 14.7333 58.5053 13.7938C58.5053 13.7938 58.5907 13.7511 58.6334 13.7511C58.6761 13.7511 58.6334 13.7511 58.6761 13.7511L60.0854 14.5624C60.0854 14.5624 60.1281 14.6051 60.1281 14.6478V14.7333C59.1459 16.2279 57.6939 16.9539 55.7722 16.9539" fill="#110633"/>
<path d="M69.2675 16.7404C69.1821 16.7404 69.1394 16.6977 69.1394 16.6122V10.7617C69.1394 9.26707 68.328 8.41298 66.876 8.41298C65.4241 8.41298 64.1856 9.48057 64.1856 11.4877V16.6122C64.1856 16.6977 64.1429 16.7404 64.0575 16.7404H62.392C62.3066 16.7404 62.2639 16.6977 62.2639 16.6122V6.96101C62.2639 6.8756 62.3066 6.8329 62.392 6.8329H64.0575C64.1429 6.8329 64.1856 6.8756 64.1856 6.96101V7.94321C64.8689 7.04642 65.8938 6.57666 67.175 6.57666C69.5237 6.57666 71.0611 8.19945 71.0611 10.6763V16.6122C71.0611 16.6977 71.0184 16.7404 70.933 16.7404H69.2675Z" fill="#110633"/>
<path d="M77.8081 8.49837C76.9113 8.49837 76.0999 8.79731 75.5021 9.43787C74.8615 10.0784 74.5626 10.8471 74.5626 11.7866C74.5626 12.7261 74.8615 13.4948 75.5021 14.1354C76.1426 14.776 76.9113 15.0749 77.8081 15.0749C78.7049 15.0749 79.5163 14.776 80.1569 14.1354C80.7975 13.4948 81.0964 12.7261 81.0964 11.7866C81.0964 10.8471 80.7975 10.0784 80.1569 9.43787C79.5163 8.79731 78.7476 8.49837 77.8081 8.49837ZM77.8081 16.9966C76.3562 16.9966 75.1177 16.4841 74.0928 15.5019C73.0679 14.477 72.5981 13.2813 72.5981 11.7866C72.5981 10.292 73.1106 9.09623 74.0928 8.07132C75.075 7.08912 76.3562 6.57666 77.8081 6.57666C79.2601 6.57666 80.4985 7.08912 81.5234 8.07132C82.5483 9.09623 83.0608 10.3347 83.0608 11.7866C83.0608 13.2386 82.5483 14.477 81.5234 15.5019C80.5412 16.4841 79.2601 16.9966 77.8081 16.9966Z" fill="#110633"/>
<path d="M90.0217 8.45543C89.0822 8.45543 88.2709 8.75436 87.673 9.43763C87.0324 10.0782 86.7335 10.8469 86.7335 11.7864C86.7335 12.7259 87.0324 13.4946 87.673 14.1779C88.3136 14.8184 89.0822 15.1173 90.0217 15.1173C90.9613 15.1173 91.7299 14.8184 92.3705 14.1779C93.0111 13.5373 93.31 12.7259 93.31 11.7864C93.31 10.8469 93.0111 10.0782 92.3705 9.43763C91.7299 8.79707 90.9613 8.45543 90.0217 8.45543ZM84.8972 20.6263C84.8118 20.6263 84.769 20.5836 84.769 20.4981V6.96077C84.769 6.87536 84.8118 6.83266 84.8972 6.83266H86.5627C86.6481 6.83266 86.6908 6.87536 86.6908 6.96077V8.24191C87.5449 7.13159 88.6979 6.61914 90.1926 6.61914C91.6872 6.61914 92.7548 7.13159 93.737 8.1565C94.7193 9.18141 95.189 10.4199 95.189 11.8291C95.189 13.2384 94.6765 14.5195 93.737 15.5444C92.7975 16.5266 91.6018 17.0391 90.1926 17.0391C88.7833 17.0391 87.5021 16.4839 86.6908 15.4163V20.5408C86.6908 20.6262 86.6481 20.6689 86.5627 20.6689H84.8972V20.6263Z" fill="#110633"/>
<path d="M100.142 16.9968C98.2634 16.9968 96.7688 16.1427 96.1709 14.6481C96.1709 14.6054 96.1709 14.5199 96.2136 14.4772L97.6656 13.6659C97.6656 13.6659 97.6656 13.6659 97.7083 13.6659C97.751 13.6659 97.7082 13.6659 97.751 13.6659C97.751 13.6659 97.7937 13.6659 97.8364 13.7513C98.1353 14.6054 98.9894 15.1605 100.1 15.1605C101.21 15.1605 101.893 15.0324 101.893 13.9648C101.893 12.8972 101.295 12.9399 100.1 12.6409C98.5623 12.2139 96.5125 11.7014 96.5125 9.5662C96.5125 7.43097 96.8542 7.98614 97.5374 7.38827C98.2207 6.83311 99.0748 6.53418 100.057 6.53418C101.68 6.53418 103.004 7.30287 103.644 8.62672C103.644 8.66942 103.644 8.75481 103.602 8.79752L102.192 9.60892C102.192 9.60892 102.192 9.60892 102.15 9.60892C102.15 9.60892 102.107 9.60891 102.064 9.5235C101.722 8.75482 101.082 8.37047 100.1 8.37047C99.1175 8.37047 98.5197 8.71212 98.5197 9.5235C98.5197 10.3349 99.0748 10.5057 100.356 10.8473C101.594 11.1036 103.986 11.616 103.943 13.9221C103.943 14.8189 103.602 15.5876 102.876 16.1427C102.15 16.6979 101.295 16.9541 100.228 16.9541" fill="#110633"/>
<path d="M10.847 23.9146C10.4199 23.9146 9.95019 23.7865 9.56585 23.573C8.79716 23.1032 8.28471 22.2918 8.28471 21.395C8.28471 21.0534 8.0712 20.7544 7.77227 20.5409L4.91105 18.8754C4.74023 18.79 4.5694 18.7473 4.39858 18.7473C4.22776 18.7473 4.09966 18.7473 3.92884 18.8754C3.5445 19.089 3.11745 19.2171 2.6477 19.2171C2.17795 19.2171 1.7509 19.089 1.36655 18.8754C0.768688 18.5338 0.34162 17.9786 0.170801 17.3381C-1.81487e-05 16.6975 0.085407 16.0142 0.427045 15.4164C0.896797 14.6477 1.70819 14.1352 2.6477 14.1352C3.5872 14.1352 3.5445 14.2633 3.92884 14.4768C4.69753 14.9466 5.20998 15.758 5.20998 16.6548C5.20998 16.9964 5.42349 17.2954 5.72242 17.5089L8.58364 19.1744C8.75446 19.2598 8.92529 19.3025 9.09611 19.3025C9.26693 19.3025 9.39503 19.3025 9.56585 19.1744C9.95019 18.9608 10.3772 18.8327 10.847 18.8327C11.3167 18.8327 11.7011 18.9608 12.0854 19.1744C12.2136 19.2598 12.3844 19.3025 12.5552 19.3025C12.726 19.3025 12.9395 19.2598 13.1104 19.1744L15.9716 17.5089C16.2705 17.3381 16.484 16.9964 16.484 16.6548C16.484 15.758 16.9538 14.9466 17.7225 14.4768C18.0214 14.306 18.1922 13.9644 18.1922 13.6228V10.2918C18.1922 9.95017 18.0214 9.60853 17.7225 9.43771C16.9538 8.96796 16.484 8.15658 16.4413 7.25979C16.4413 6.91815 16.2278 6.61922 15.9289 6.40569L13.0676 4.7402C12.8968 4.65479 12.726 4.61209 12.5552 4.61209C12.3844 4.61209 12.2563 4.61209 12.0854 4.7402C11.7011 4.95373 11.274 5.08183 10.8043 5.08183C10.3345 5.08183 9.9075 4.95373 9.52315 4.7402C9.39504 4.65479 9.22423 4.61209 9.05341 4.61209C8.88259 4.61209 8.66905 4.65479 8.49823 4.7402L5.63703 6.40569C5.3381 6.57651 5.12457 6.91813 5.12457 7.21706C5.12457 7.5587 5.3381 7.85764 5.63703 8.02846L8.49823 9.69395C8.66905 9.77936 8.83987 9.82206 9.01069 9.82206C9.18151 9.82206 9.30964 9.82207 9.48046 9.69395C9.8648 9.48043 10.2919 9.3523 10.7616 9.3523C11.2314 9.3523 11.6584 9.48043 12.0427 9.69395C13.2385 10.3772 13.6655 11.9573 12.9822 13.1957C12.5125 13.9644 11.7011 14.4768 10.7616 14.4768C9.8221 14.4768 9.8648 14.3487 9.48046 14.1352C8.71177 13.6655 8.19932 12.8541 8.19932 11.9573C8.19932 11.6157 7.98579 11.3167 7.68685 11.1032L4.82563 9.43771C4.65481 9.3523 4.48399 9.3096 4.31317 9.3096C4.14235 9.3096 4.01425 9.3096 3.84343 9.43771C3.45908 9.65123 3.03204 9.77934 2.56228 9.77934C1.66548 9.77934 0.811383 9.30959 0.34163 8.4982C-7.73802e-06 7.90034 -0.0854068 7.21706 0.0854122 6.5765C0.256231 5.93593 0.683274 5.38078 1.28114 5.03914C1.66548 4.82562 2.09253 4.69751 2.56228 4.69751C3.03204 4.69751 3.45908 4.82562 3.84343 5.03914C3.97154 5.12455 4.14235 5.16725 4.31317 5.16725C4.48399 5.16725 4.69751 5.12455 4.86832 5.03914L7.72955 3.37366C8.02848 3.20284 8.24201 2.86121 8.24201 2.51957C8.24201 1.62277 8.75447 0.768678 9.52315 0.341632C9.9075 0.128109 10.3345 0 10.8043 0C11.7011 0 12.5552 0.469751 13.025 1.28114C13.2385 1.66548 13.3666 2.09252 13.3666 2.51957C13.3666 2.86121 13.5801 3.16014 13.879 3.37366L16.7403 5.03914C16.9111 5.12455 17.0819 5.16725 17.2527 5.16725C17.4235 5.16725 17.5517 5.16725 17.7225 5.03914C18.1068 4.82562 18.5339 4.69751 19.0036 4.69751C20.4129 4.69751 21.5659 5.85053 21.5659 7.25979C21.5659 8.66904 21.0961 9.01066 20.3275 9.43771C20.0285 9.60853 19.8577 9.95017 19.8577 10.2918V13.6228C19.8577 13.9644 20.0285 14.306 20.3275 14.4768C21.0961 14.9466 21.6086 15.758 21.6086 16.6975C21.6086 18.1067 20.4556 19.2598 19.0463 19.2598C17.6371 19.2598 18.1495 19.1317 17.8079 18.9181C17.6798 18.8327 17.5089 18.79 17.3381 18.79C17.1673 18.79 16.9538 18.8327 16.783 18.9181L13.9217 20.5836C13.6228 20.7544 13.4093 21.0961 13.4093 21.4377C13.4093 21.8648 13.2812 22.3345 13.0676 22.7189C12.5979 23.4875 11.7865 24 10.847 24" fill="#00D92F"/>
</svg>
