<svg width="1200" height="631" viewBox="0 0 1200 631" fill="none" xmlns="http://www.w3.org/2000/svg">
<g clip-path="url(#clip0_3550_902)">
<rect width="1200" height="630" transform="translate(0 0.712646)" fill="#0F0F14"/>
<path d="M470.273 332.353C475.032 327.603 477.551 321.735 477.551 314.469C477.551 307.204 475.032 301.336 470.273 296.585C465.513 291.835 459.634 289.32 452.635 289.32C445.637 289.32 439.757 291.835 434.998 296.585C430.239 301.336 427.719 307.204 427.719 314.469C427.719 321.735 430.239 327.603 434.998 332.353C439.757 337.104 445.637 339.619 452.635 339.619C459.634 339.619 465.513 337.104 470.273 332.353ZM452.635 351.355C442.277 351.355 433.598 347.722 426.319 340.736C419.041 333.471 415.681 324.809 415.681 314.469C415.681 304.13 419.321 295.467 426.319 288.202C433.598 280.937 442.277 277.583 452.635 277.583C462.994 277.583 471.672 281.216 478.951 288.202C486.23 295.467 489.87 304.13 489.87 314.469C489.87 324.809 486.23 333.471 478.951 340.736C471.672 348.002 462.994 351.355 452.635 351.355Z" fill="white"/>
<path d="M559.307 332.325C564.066 327.295 566.586 321.427 566.586 314.441C566.586 307.455 564.066 301.307 559.307 296.557C554.547 291.527 548.668 289.291 541.67 289.291C534.671 289.291 528.511 291.806 523.752 296.557C518.993 301.307 516.473 307.175 516.473 314.441C516.473 321.706 518.993 327.574 523.752 332.325C528.511 337.075 534.391 339.59 541.67 339.59C548.948 339.59 554.547 337.075 559.307 332.325ZM568.265 288.173C575.264 295.439 578.624 304.101 578.624 314.161C578.624 324.221 574.984 333.163 568.265 340.428C561.266 347.694 552.868 351.047 543.069 351.047C533.271 351.047 522.632 346.296 516.473 337.075V377.314H504.155V278.952H516.473V290.968C522.632 281.746 531.311 276.996 543.069 276.996C554.827 276.996 561.266 280.629 568.265 287.894" fill="white"/>
<path d="M601.85 309.439H648.882C646.642 296.026 637.404 289.04 626.206 289.04C615.007 289.04 604.089 297.144 601.85 309.439ZM601.85 320.058C604.369 332.633 613.888 339.898 627.325 339.898C640.763 339.898 643.283 336.545 647.482 329.559L657.841 335.427C650.842 346.046 640.763 351.355 626.766 351.355C612.768 351.355 606.609 347.722 599.61 341.016C592.611 334.03 589.251 325.088 589.251 314.469C589.251 303.851 592.611 295.188 599.61 288.202C606.609 281.216 615.287 277.583 626.206 277.583C637.124 277.583 644.963 281.216 651.402 288.482C658.121 295.747 661.2 304.41 661.2 314.469C661.2 324.529 661.2 318.102 660.64 320.058H601.569H601.85Z" fill="white"/>
<path d="M737.631 306.351V349.384H725.313V306.909C725.313 295.452 718.594 289.025 707.956 289.025C697.318 289.025 687.519 296.57 687.519 312.219V349.384H675.201V279.245H687.519V289.305C692.558 281.201 700.117 277.289 710.196 277.289C726.713 277.289 737.351 288.466 737.351 306.351" fill="white"/>
<path d="M805.662 332.353C810.421 327.603 812.941 321.735 812.941 314.469C812.941 307.204 810.421 301.336 805.662 296.585C800.903 291.835 795.023 289.32 788.025 289.32C781.026 289.32 775.147 291.835 770.387 296.585C765.628 301.336 763.109 307.204 763.109 314.469C763.109 321.735 765.628 327.603 770.387 332.353C775.147 337.104 781.026 339.619 788.025 339.619C795.023 339.619 800.903 337.104 805.662 332.353ZM787.745 351.355C777.386 351.355 768.708 347.722 761.429 340.736C754.15 333.471 750.791 324.809 750.791 314.469C750.791 304.13 754.43 295.467 761.429 288.202C768.708 280.937 777.386 277.583 787.745 277.583C798.103 277.583 806.782 281.216 814.061 288.202C821.339 295.467 824.979 304.13 824.979 314.469C824.979 324.809 821.339 333.471 814.061 340.736C806.782 348.002 798.103 351.355 787.745 351.355Z" fill="white"/>
<path d="M894.404 332.325C899.163 327.295 901.683 321.427 901.683 314.441C901.683 307.455 899.163 301.307 894.404 296.557C889.645 291.527 883.766 289.291 876.767 289.291C869.768 289.291 863.609 291.806 858.85 296.557C854.091 301.307 851.571 307.175 851.571 314.441C851.571 321.706 854.091 327.574 858.85 332.325C863.609 337.075 869.488 339.59 876.767 339.59C884.046 339.59 889.645 337.075 894.404 332.325ZM903.363 288.173C910.362 295.439 913.721 304.101 913.721 314.161C913.721 324.221 910.082 333.163 903.363 340.428C896.364 347.694 887.965 351.047 878.167 351.047C868.368 351.047 857.73 346.296 851.571 337.075V377.314H839.253V278.952H851.571V290.968C857.73 281.746 866.409 276.996 878.167 276.996C889.925 276.996 896.364 280.629 903.363 287.894" fill="white"/>
<path d="M951.524 308.881C962.442 311.396 977 315.308 977 330.397C977 336.824 974.48 341.854 969.441 345.766C964.402 349.679 958.243 351.635 950.684 351.635C936.966 351.635 926.888 345.207 922.688 335.148L933.327 329C935.566 335.707 942.285 339.898 950.684 339.898C959.083 339.898 964.682 336.824 964.682 330.397C964.682 323.97 958.523 321.735 950.684 320.058C939.486 316.984 925.208 313.352 925.208 298.541C925.208 283.731 927.727 287.364 932.207 283.452C936.966 279.539 942.845 277.583 950.124 277.583C961.602 277.583 970.841 283.172 975.32 292.114L964.962 297.982C962.442 291.835 957.403 289.04 949.844 289.04C942.285 289.04 937.246 292.394 937.246 298.541C937.246 304.689 943.405 306.924 951.244 309.16" fill="white"/>
<path d="M249.389 296.292C251.908 294.895 254.988 295.174 257.508 296.292L278.504 308.308C281.024 309.705 282.704 312.22 282.704 315.294C282.704 321.441 285.783 327.309 291.382 330.383C299.781 335.134 310.699 332.339 315.459 323.956C320.218 315.573 317.418 304.675 309.02 299.924C303.42 296.571 296.701 296.851 291.382 299.924C288.863 301.322 285.783 301.042 283.264 299.924L262.267 287.909C259.747 286.511 258.068 283.996 258.068 281.202C258.068 278.408 259.747 275.893 262.267 274.496L283.264 262.48C285.783 261.082 288.863 260.803 291.382 262.48C296.701 265.553 303.141 265.553 308.74 262.48C311.259 261.082 314.339 261.362 316.858 262.48L337.855 274.496C340.375 275.893 342.055 278.408 342.055 281.482C342.055 287.909 345.694 293.497 350.733 296.571C353.253 297.968 354.653 300.763 354.653 303.557V327.589C354.653 330.383 353.253 333.178 350.733 334.854C345.414 337.928 342.055 343.517 342.055 349.944C342.055 352.738 340.375 355.253 337.855 356.93L316.858 368.946C314.339 370.343 311.259 370.622 308.74 368.946C303.141 365.872 296.422 365.872 291.382 368.946C288.863 370.343 285.783 370.063 283.264 368.946L262.267 356.93C259.747 355.533 258.068 353.018 258.068 349.944C258.068 343.796 254.988 337.928 249.389 334.854C240.99 330.104 230.072 332.898 225.313 341.281C220.553 349.664 223.353 360.563 231.752 365.313C237.351 368.666 244.07 368.387 249.389 365.313C251.908 363.916 254.988 364.195 257.508 365.313L278.504 377.329C281.024 378.726 282.704 381.241 282.704 384.315C282.704 390.462 285.783 396.33 291.382 399.404C299.781 404.155 310.699 401.36 315.459 392.977C317.138 390.183 317.698 387.109 317.698 384.315C317.698 381.52 319.378 379.005 321.898 377.329L342.894 365.313C345.414 363.916 348.493 363.636 351.013 365.313C353.533 366.71 356.612 367.548 359.692 367.548C369.49 367.548 377.329 359.724 377.329 349.944C377.329 340.164 373.69 337.928 368.65 334.854C366.131 333.457 364.731 330.663 364.731 327.868V303.837C364.731 301.042 366.131 298.248 368.65 296.571C373.97 293.497 377.329 287.909 377.329 281.482C377.329 271.701 369.49 263.877 359.692 263.877C349.893 263.877 353.533 264.715 351.013 266.112C348.493 267.51 345.414 267.23 342.894 266.112L321.898 254.097C319.378 252.699 317.698 250.184 317.698 247.111C317.698 244.037 316.858 241.242 315.459 238.448C310.699 230.065 299.781 227.271 291.382 232.021C285.783 235.374 282.704 241.242 282.704 247.111C282.704 249.905 281.024 252.42 278.504 254.097L257.508 266.112C254.988 267.51 251.908 267.789 249.389 266.112C244.07 263.039 237.351 263.039 231.752 266.112C223.353 270.863 220.553 281.761 225.313 290.144C230.072 298.527 240.99 301.322 249.389 296.571" fill="#AAFF00"/>
<g opacity="0.39" filter="url(#filter0_f_3550_902)">
<ellipse cx="606.083" cy="192.756" rx="606.083" ry="192.756" transform="matrix(-0.99992 0.0126473 -0.0101139 -0.999949 780.435 747.476)" fill="#19C35E"/>
</g>
<g opacity="0.25" filter="url(#filter1_f_3550_902)">
<ellipse cx="1003.2" cy="605.537" rx="632.332" ry="180.666" fill="#ADFF0B"/>
</g>
</g>
<defs>
<filter id="filter0_f_3550_902" x="-733.586" y="69.4939" width="1812.08" height="985.803" filterUnits="userSpaceOnUse" color-interpolation-filters="sRGB">
<feFlood flood-opacity="0" result="BackgroundImageFix"/>
<feBlend mode="normal" in="SourceGraphic" in2="BackgroundImageFix" result="shape"/>
<feGaussianBlur stdDeviation="150" result="effect1_foregroundBlur_3550_902"/>
</filter>
<filter id="filter1_f_3550_902" x="154.068" y="208.071" width="1698.26" height="794.933" filterUnits="userSpaceOnUse" color-interpolation-filters="sRGB">
<feFlood flood-opacity="0" result="BackgroundImageFix"/>
<feBlend mode="normal" in="SourceGraphic" in2="BackgroundImageFix" result="shape"/>
<feGaussianBlur stdDeviation="108.4" result="effect1_foregroundBlur_3550_902"/>
</filter>
<clipPath id="clip0_3550_902">
<rect width="1200" height="630" fill="white" transform="translate(0 0.712646)"/>
</clipPath>
</defs>
</svg>
